<svg xmlns="http://www.w3.org/2000/svg" width="53.682" height="43.751"><path d="M53.383 18.031a1.441 1.441 0 00.259-1.219 1.426 1.426 0 00-.787-.961 11.8 11.8 0 00-2.123-.753 11.63 11.63 0 00-4.56-.224 11.765 11.765 0 00-6.519-5.245 11.976 11.976 0 00-3.434-5.228 1.548 1.548 0 00-2.381.382 12.086 12.086 0 00-1.511 4.871 13.285 13.285 0 00-2.211.647s-4.307 1.93-.925 1.873a10.039 10.039 0 00-1.024 2.855c-.086.347-.156.7-.206 1.048h-.006a19.364 19.364 0 00-10.977-5.478 19.149 19.149 0 00-2.88-.191q.058-.3.132-.6A11.827 11.827 0 0125.467.747a.201.201 0 00.049-.4h-.019a11.707 11.707 0 00-9.624 1.822 11.944 11.944 0 00-4.951 8.532 19.246 19.246 0 00-4.885 1.568.173.173 0 00-.087.212.171.171 0 00.2.112 19.126 19.126 0 014.71-.512 11.911 11.911 0 00.862 4.294q-.387-.113-.784-.214a19.148 19.148 0 00-10.81.425.462.462 0 00-.076.52.453.453 0 00.457.251 19.352 19.352 0 0115.618 5.509q.372.368.722.755a19.744 19.744 0 014.541 17.986c-.035.139-.069.283-.109.423a1.225 1.225 0 00.116.926 1.2 1.2 0 00.732.569q.123.035.247.064h.013a1.588 1.588 0 001.854-.957 19.947 19.947 0 00.87-2.705 19.878 19.878 0 00.554-3.847 11.515 11.515 0 003.794.088l-.059.246a19.658 19.658 0 01-2.753 6.264.69.69 0 00-.01.758.675.675 0 00.688.3c.264-.049.527-.108.787-.175a1.024 1.024 0 00.5-.307 19.565 19.565 0 004.453-8.214l.075-.3a19.881 19.881 0 00.4-2.138 19.594 19.594 0 00.086-4.439s0-.006.006 0a11.6 11.6 0 002.763 1.184c.123.035.247.069.372.1a12.367 12.367 0 008.836-.73l-.831-1.07c2.362 1.641 1.483 1.258 2.706-3.82a12.512 12.512 0 00.3-1.815 11.832 11.832 0 005.603-3.981z" fill="#f5989d"/></svg>